<svg xmlns="http://www.w3.org/2000/svg" width="17" height="16" fill="none" xmlns:v="https://vecta.io/nano"><path fill-rule="evenodd" d="M12.309 10.884l3.403 3.402a.42.42 0 0 1 0 .59.41.41 0 0 1-.295.124c-.106 0-.214-.043-.295-.124l-3.403-3.402c-1.049.913-2.419 1.465-3.915 1.465a5.98 5.98 0 0 1-5.971-5.969A5.98 5.98 0 0 1 7.804 1a5.98 5.98 0 0 1 5.971 5.969c0 1.496-.553 2.865-1.466 3.914zM7.801 1.838a5.14 5.14 0 0 0-5.132 5.131 5.14 5.14 0 0 0 5.132 5.134 5.14 5.14 0 0 0 5.132-5.134 5.14 5.14 0 0 0-5.132-5.131z" fill="url(#A)"/><defs><linearGradient id="A" x1="15.833" y1="8" x2="1.833" y2="8" gradientUnits="userSpaceOnUse"><stop stop-color="#9c79ff"/><stop offset=".995" stop-color="#0fd4ff"/></linearGradient></defs></svg>