<svg width="28" height="21" fill="none" xmlns="http://www.w3.org/2000/svg"><path d="M6.862 5.63C3.013 5.977 0 9.235 0 13.2c0 4.2 3.372 7.602 7.538 7.602h6.319c-4.157-.009-7.521-3.41-7.521-7.602V8.418c0-.985.183-1.928.526-2.787Z" fill="#FF42A5"/><path d="M20.86 5.63c.343.868.526 1.81.526 2.796v4.782c0 4.193-3.364 7.594-7.52 7.602h6.318c4.166 0 7.538-3.401 7.538-7.602 0-3.974-3.013-7.232-6.862-7.577Z" fill="#B3D661"/><path d="M13.84 20.802h-.016.033-.017Zm0-19.987c-3.188 0-5.91 1.996-7.012 4.816.226-.017.451-.034.677-.034h12.671c.225 0 .46.009.676.034C19.76 2.811 17.03.815 13.84.815Z" fill="#51A5C9"/><path d="M13.815 5.598h-6.31c-.226 0-.46.008-.677.033a7.595 7.595 0 0 0-.526 2.795v4.782c0 4.193 3.365 7.594 7.522 7.603h.016c-4.148-.017-7.504-3.419-7.504-7.603 0-4.192 3.356-7.585 7.504-7.602-.008-.008-.016-.008-.025-.008Z" fill="#4C4789"/><path d="M20.184 5.598H13.85c4.148.016 7.504 3.418 7.504 7.602 0 4.192-3.356 7.585-7.504 7.602h.016c4.157-.008 7.521-3.41 7.521-7.602V8.418c0-.985-.183-1.928-.526-2.795a9.074 9.074 0 0 0-.676-.025Z" fill="#398B4D"/><path d="M13.84 5.598c-4.149.016-7.504 3.418-7.504 7.602 0 4.192 3.355 7.585 7.504 7.602 4.149-.017 7.505-3.418 7.505-7.602.008-4.184-3.356-7.586-7.505-7.602Z" fill="#0B0223"/><path d="M13.857 20.802c4.163 0 7.538-3.403 7.538-7.602s-3.375-7.602-7.538-7.602S6.319 9 6.319 13.2s3.375 7.602 7.538 7.602Z" fill="#0B0223"/><g fill="#fff"><path d="M11.995 12.745c0 .674-.542 1.22-1.21 1.22-.668 0-1.21-.546-1.21-1.22 0-.673.542-1.22 1.21-1.22.668 0 1.21.547 1.21 1.22ZM18.03 13.419h-1.836a.597.597 0 0 1-.592-.598v-.143c0-.329.267-.598.592-.598h1.837c.325 0 .592.27.592.598v.143a.598.598 0 0 1-.592.598Z"/></g><g fill="#fff"><path d="M12.012 12.762c0 .673-.543 1.22-1.21 1.22-.668 0-1.21-.547-1.21-1.22 0-.674.542-1.221 1.21-1.221.668 0 1.21.547 1.21 1.22ZM18.039 13.435h-1.837a.597.597 0 0 1-.592-.598v-.143c0-.328.267-.597.593-.597h1.836c.325 0 .593.27.593.597v.143a.592.592 0 0 1-.593.598Z"/></g></svg>